<?xml version="1.0" standalone="no"?>
<!DOCTYPE svg PUBLIC "-//W3C//DTD SVG 20010904//EN"
 "http://www.w3.org/TR/2001/REC-SVG-20010904/DTD/svg10.dtd">
<svg version="1.0" xmlns="http://www.w3.org/2000/svg"
 width="880.000000pt" height="880.000000pt" viewBox="0 0 880.000000 880.000000"
 preserveAspectRatio="xMidYMid meet">
<metadata>
Created by potrace 1.14, written by Peter Selinger 2001-2017
</metadata>
<g transform="translate(0.000000,880.000000) scale(0.100000,-0.100000)"
fill="#000000" stroke="none">
<path d="M2499 8735 c-2 -2 -38 -6 -79 -9 -185 -15 -236 -21 -350 -45 -78 -16
-98 -20 -117 -26 -10 -2 -38 -9 -63 -15 -117 -28 -320 -106 -472 -180 -68 -33
-257 -142 -283 -162 -5 -5 -48 -36 -95 -71 -95 -70 -123 -92 -157 -124 -13
-13 -25 -23 -27 -23 -11 0 -193 -191 -259 -270 -43 -52 -83 -102 -90 -110 -7
-8 -26 -35 -42 -60 -17 -25 -32 -47 -36 -50 -3 -3 -21 -32 -41 -65 -94 -157
-198 -367 -198 -399 0 -8 -3 -16 -8 -18 -7 -3 -67 -168 -77 -213 -2 -11 -13
-54 -24 -95 -11 -41 -22 -86 -25 -100 -3 -14 -8 -36 -11 -50 -4 -14 -8 -43
-10 -65 -2 -22 -6 -51 -9 -65 -29 -129 -29 -632 0 -840 2 -19 6 -51 8 -70 5
-43 14 -101 26 -160 6 -25 12 -57 14 -72 3 -15 17 -74 31 -130 15 -57 28 -110
30 -118 2 -8 12 -40 23 -70 11 -30 20 -59 22 -65 1 -5 7 -21 12 -35 5 -14 11
-32 13 -40 19 -85 195 -446 291 -598 19 -29 34 -57 34 -62 0 -6 4 -10 9 -10 5
0 13 -9 16 -20 3 -11 12 -26 19 -32 6 -7 22 -29 34 -49 40 -65 68 -89 106 -89
42 0 53 9 345 289 40 39 74 71 76 71 1 0 35 32 76 70 40 39 77 70 81 70 4 0 8
7 8 15 0 8 4 15 8 15 5 0 52 42 105 93 112 107 119 127 67 204 -16 24 -30 48
-30 52 0 5 -9 20 -21 35 -11 14 -17 26 -13 26 4 0 0 8 -8 18 -18 21 -80 150
-114 239 -14 38 -29 77 -34 88 -10 24 -49 154 -55 184 -9 38 -23 105 -31 141
-2 14 -7 39 -9 55 -3 17 -7 41 -10 55 -17 83 -24 397 -12 509 7 53 23 137 41
212 14 55 48 154 57 165 6 7 8 17 5 23 -3 5 -3 11 1 13 5 1 26 39 47 83 88
179 224 350 376 475 23 19 49 41 56 48 7 6 17 12 22 12 5 0 15 6 21 14 22 27
188 117 306 168 46 19 135 47 135 41 0 -3 6 -1 13 4 11 9 31 14 117 29 14 3
34 8 45 11 11 3 45 7 76 8 31 1 60 4 65 6 20 10 319 -10 319 -21 0 -1 15 -3
34 -6 50 -6 211 -51 266 -74 127 -52 335 -164 335 -179 0 -4 10 -13 23 -19 12
-5 54 -36 92 -66 91 -73 91 -73 155 -126 30 -25 63 -52 74 -60 10 -8 26 -22
35 -31 43 -41 101 -79 120 -79 36 0 78 28 88 57 6 21 10 1158 4 1278 -1 27
-79 106 -151 155 -19 13 -37 27 -40 30 -21 22 -223 120 -321 154 -43 15 -112
36 -155 47 -109 28 -115 29 -154 35 -19 3 -46 7 -60 10 -14 2 -47 7 -75 10
-27 3 -63 8 -80 11 -37 5 -531 13 -536 8z"/>
<path d="M5849 8736 c-2 -2 -35 -7 -74 -10 -134 -10 -180 -17 -290 -41 -52
-11 -91 -19 -95 -20 -71 -18 -164 -48 -215 -70 -16 -7 -47 -19 -67 -26 -21 -7
-38 -17 -38 -22 0 -4 -4 -6 -9 -2 -5 3 -16 -1 -23 -9 -8 -7 -25 -17 -38 -21
-13 -4 -28 -12 -34 -17 -6 -5 -34 -23 -61 -41 -61 -38 -71 -47 -141 -113 l-54
-51 0 -651 0 -650 31 -26 c46 -39 89 -32 149 24 9 8 36 31 59 50 24 19 52 42
63 52 10 9 37 31 60 50 23 18 46 38 52 43 6 6 44 35 84 65 39 30 72 58 72 62
0 5 5 8 11 8 6 0 30 14 54 30 24 17 48 30 53 30 6 0 12 3 14 8 9 20 226 116
333 147 68 19 63 18 165 40 157 34 399 36 520 5 19 -5 50 -10 68 -12 17 -1 32
-6 32 -10 0 -4 8 -8 18 -8 18 0 129 -36 187 -61 17 -7 32 -13 35 -14 26 -8
216 -114 245 -136 103 -81 152 -124 210 -184 74 -76 137 -151 144 -169 2 -6 7
-13 12 -16 12 -8 99 -160 130 -228 24 -52 77 -195 89 -237 1 -5 4 -14 5 -20 6
-22 28 -130 32 -159 7 -48 11 -440 4 -451 -3 -5 -6 -19 -7 -30 -1 -24 -21
-164 -29 -204 -7 -39 -58 -227 -64 -236 -3 -5 -6 -14 -6 -20 -1 -5 -5 -19 -9
-30 -4 -11 -17 -45 -28 -75 -11 -30 -34 -83 -49 -118 -16 -35 -29 -68 -29 -73
0 -5 -4 -9 -10 -9 -5 0 -10 -9 -10 -20 0 -11 -4 -20 -10 -20 -5 0 -10 -9 -10
-20 0 -11 -4 -20 -9 -20 -5 0 -13 -10 -17 -22 -3 -13 -12 -30 -19 -38 -28 -33
-62 -108 -62 -134 0 -34 29 -64 415 -422 35 -33 92 -86 126 -119 214 -204 232
-217 284 -199 47 16 214 275 331 511 61 124 80 167 123 278 19 50 39 99 43
110 4 11 9 25 10 30 2 6 14 46 29 89 14 43 23 83 20 87 -3 5 -1 9 4 9 5 0 9 6
9 13 1 6 10 51 22 99 11 47 23 99 26 115 2 15 7 39 10 53 3 14 8 43 10 65 3
22 8 47 10 55 2 8 7 42 11 75 3 33 8 74 10 90 17 157 22 474 9 611 -4 43 -8
93 -10 109 -4 46 -14 115 -25 165 -5 25 -12 59 -14 75 -2 17 -5 30 -6 30 -1 0
-4 12 -6 26 -2 14 -16 64 -29 110 -14 46 -27 91 -30 99 -2 8 -22 62 -45 120
-23 58 -47 119 -53 135 -7 17 -14 32 -17 35 -3 3 -21 37 -40 75 -67 136 -253
422 -281 433 -5 2 -9 7 -9 11 0 12 -83 103 -186 206 -116 116 -141 138 -244
215 -47 36 -86 68 -88 72 -2 5 -8 8 -13 8 -5 0 -35 17 -67 39 -31 21 -73 46
-92 56 -19 10 -37 21 -40 24 -11 14 -260 130 -345 161 -49 18 -99 36 -110 41
-21 8 -63 21 -80 25 -5 1 -46 12 -90 23 -44 12 -93 24 -109 26 -15 2 -35 7
-45 9 -9 3 -34 8 -56 11 -22 3 -53 8 -70 10 -16 3 -55 8 -85 11 -30 3 -75 7
-100 10 -57 6 -536 15 -541 10z"/>
<path d="M2032 4118 c-7 -7 -12 -9 -12 -5 0 3 -18 -2 -39 -11 -35 -15 -100
-72 -312 -274 -104 -98 -216 -203 -250 -234 -70 -64 -100 -104 -108 -147 -18
-101 7 -138 251 -359 39 -35 92 -83 118 -108 27 -25 78 -72 115 -105 37 -33
79 -71 94 -85 15 -14 56 -50 90 -80 35 -30 78 -68 96 -85 18 -16 64 -57 101
-90 37 -33 92 -82 122 -110 30 -27 64 -58 75 -67 39 -34 283 -264 374 -354 51
-49 93 -89 93 -88 0 5 332 -331 454 -460 191 -202 196 -207 251 -271 28 -32
62 -70 76 -85 14 -15 59 -68 100 -116 40 -49 77 -90 81 -92 4 -2 8 -10 8 -17
0 -7 4 -15 8 -17 13 -5 152 -185 152 -196 0 -6 4 -12 8 -14 5 -2 23 -25 42
-53 18 -27 36 -52 39 -55 3 -3 40 -54 81 -115 41 -60 82 -119 92 -129 10 -11
18 -26 18 -33 0 -7 4 -13 8 -13 5 0 15 -12 23 -27 13 -26 38 -59 66 -88 7 -7
10 -15 7 -17 -2 -3 19 -15 48 -28 90 -39 183 -11 233 68 16 26 33 52 38 57 5
6 80 118 167 250 87 132 165 249 174 260 8 11 39 52 67 90 29 39 72 95 96 125
25 30 50 62 56 70 19 24 110 132 127 150 8 9 40 45 70 80 255 294 685 732
1111 1132 63 58 123 115 135 125 12 10 61 55 110 99 49 45 104 95 122 110 18
16 59 53 90 82 31 30 74 68 95 85 21 18 66 59 101 92 35 33 94 87 131 120 140
124 234 223 243 257 11 43 7 104 -9 137 -8 14 -40 51 -73 81 -32 30 -83 78
-112 106 -30 28 -54 50 -54 48 0 -2 -15 11 -34 29 -30 29 -111 103 -265 242
-30 28 -62 58 -72 67 -25 23 -51 36 -90 44 -75 14 -117 -2 -191 -75 -26 -25
-134 -130 -240 -233 -106 -103 -265 -257 -353 -343 -88 -86 -256 -249 -374
-363 -117 -114 -273 -265 -347 -337 -73 -71 -233 -227 -355 -345 -122 -118
-263 -255 -314 -305 -51 -49 -106 -100 -124 -113 -39 -28 -96 -37 -149 -22
-40 10 -66 32 -287 245 -34 33 -133 128 -220 210 -86 83 -188 179 -225 215
-37 36 -141 135 -230 220 -89 85 -200 191 -246 236 -46 44 -84 80 -84 79 0 0
-45 42 -99 95 -54 52 -172 165 -262 250 -89 85 -188 180 -219 210 -246 236
-374 356 -388 364 -10 5 -20 13 -23 18 -3 6 -9 9 -13 9 -3 -1 -8 0 -11 0 -3 1
-13 2 -22 3 -10 1 -23 4 -29 8 -6 4 -16 2 -22 -4z"/>
</g>
</svg>
