<svg xmlns="http://www.w3.org/2000/svg" viewBox="0 0 2654.43 1050.35"><defs><style>.a{fill:currentColor;}</style></defs><title>clear-text-color</title><path class="a" d="M335.26,548.89c0-204.35,154.5-343.92,348.9-343.92,151.51,0,236.25,79.75,283.1,162.49L845.65,427.27c-27.92-53.83-87.73-96.69-161.49-96.69-115.64,0-203.37,92.71-203.37,218.31s87.73,218.3,203.37,218.3c73.76,0,133.57-41.86,161.49-96.69l121.61,58.81C919.41,812.05,835.67,892.8,684.16,892.8,489.76,892.8,335.26,753.24,335.26,548.89Z"/><path class="a" d="M1038.48,215.94h126.6v664.9h-126.6Z"/><path class="a" d="M1466.86,387.4c143.56,0,241.24,107.66,241.24,265.16v27.91H1350.23c8,60.81,56.83,111.65,138.57,111.65,44.85,0,97.69-17.94,128.59-47.85L1673.21,826c-48.85,44.87-123.61,66.8-198.37,66.8-146.53,0-257.18-98.69-257.18-253.2C1217.66,500,1320.33,387.4,1466.86,387.4ZM1348.25,594.74h237.24c-3-45.85-34.89-106.66-118.63-106.66C1388.11,488.08,1354.22,546.89,1348.25,594.74Z"/><path class="a" d="M2078.37,831c-32.88,38.88-89.71,61.81-152.51,61.81-76.75,0-167.46-51.83-167.46-159.5,0-112.64,90.71-153.51,167.46-153.51,63.8,0,120.62,19.94,152.51,58.81V571.81c0-48.85-41.86-80.74-105.66-80.74-51.84,0-99.67,18.94-140.55,56.82l-47.85-84.73c58.81-51.84,134.57-75.76,210.34-75.76,109.65,0,210.33,43.86,210.33,182.42v311H2078.37Zm0-125.6c-20.92-27.91-60.8-41.86-101.67-41.86-49.84,0-90.71,26.91-90.71,72.76,0,44.86,40.87,70.78,90.71,70.78,40.87,0,80.75-14,101.67-41.87Z"/><path class="a" d="M2299,399.36h126.6v65.79c33.9-42.86,93.7-76.75,153.51-76.75V512c-9-2-20.92-3-34.88-3-41.87,0-97.69,22.93-118.63,53.83v318H2299Z"/></svg>
