<svg xmlns="http://www.w3.org/2000/svg" viewBox="0 0 4318.59 1050.35"><defs><style>.a{fill:currentColor;}</style></defs><title>codeday-text-color</title><path class="a" d="M197.07,524.29c0-204.06,154.3-343.43,353.39-343.43,146.33,0,230.95,79.64,277.72,162.26L706.75,402.85c-27.88-53.76-87.61-96.56-156.29-96.56-120.46,0-208,92.57-208,218s87.59,218,208.05,218c68.68,0,128.41-41.81,156.29-96.56l121.43,58.73c-47.77,82.62-131.39,163.25-277.72,163.25C351.37,867.72,197.07,728.36,197.07,524.29Z"/><path class="a" d="M845.38,614.88C845.38,478.5,940.93,363,1099.22,363c159.26,0,254.83,115.47,254.83,251.85,0,137.37-95.57,252.84-254.83,252.84C940.93,867.72,845.38,752.25,845.38,614.88Zm377.27,0c0-74.66-44.8-139.36-123.43-139.36s-122.45,64.7-122.45,139.36c0,75.65,43.8,140.36,122.45,140.36S1222.65,690.53,1222.65,614.88Z"/><path class="a" d="M1744.53,855.78V794.06c-37.83,47.78-90.59,73.66-148.33,73.66-121.45,0-213-91.58-213-251.85,0-157.28,90.59-252.84,213-252.84,56.74,0,110.5,24.89,148.33,73.66V191.81h127.41v664Zm0-155.29V530.27c-20.91-31.86-66.7-54.75-109.5-54.75-71.68,0-121.45,56.73-121.45,140.35,0,82.63,49.77,139.37,121.45,139.37C1677.83,755.24,1723.62,732.34,1744.53,700.49Z"/><path class="a" d="M1919.28,614.88c0-139.36,102.54-251.85,248.87-251.85,143.34,0,240.91,107.51,240.91,264.79v27.87H2051.69c8,60.73,56.74,111.49,138.37,111.49,40.8,0,97.55-17.92,128.41-47.78L2374.22,801c-47.79,43.79-123.45,66.69-198.11,66.69C2029.78,867.72,1919.28,769.17,1919.28,614.88Zm248.87-151.31c-78.63,0-112.48,58.73-118.46,106.51h236.92C2283.62,524.29,2251.77,463.57,2168.15,463.57Z"/><path class="a" d="M2456.4,855.78v-664h261.8c208.05,0,352.39,132.4,352.39,332.48S2926.25,855.78,2718.2,855.78Zm469.85-331.49c0-117.46-71.67-208-208.05-208H2597.75v415.1H2718.2C2849.6,731.34,2926.25,636.78,2926.25,524.29Z"/><path class="a" d="M3412,855.78V806c-32.84,38.82-89.59,61.72-152.3,61.72-76.64,0-167.24-51.76-167.24-159.27,0-112.49,90.6-155.29,167.24-155.29,63.71,0,120.45,20.9,152.3,58.73v-64.7c0-48.78-41.8-80.63-105.51-80.63-51.76,0-99.55,18.91-140.37,56.74l-47.77-84.62c58.73-51.76,134.39-75.65,210-75.65,109.5,0,210,43.8,210,182.16V855.78Zm0-115.48V680.58c-20.89-27.87-60.72-41.81-101.52-41.81-49.78,0-90.6,25.88-90.6,72.67,0,44.79,40.82,70.67,90.6,70.67C3351.25,782.11,3391.08,768.18,3412,740.3Z"/><path class="a" d="M3612.33,930.44c11,5,27.87,8,39.82,8,32.85,0,54.74-9,66.69-34.84l17.92-40.82L3541.65,375H3677l125.43,334.46L3927.88,375h136.38l-226,559.44c-35.83,90.58-99.54,114.47-182.16,116.46-14.93,0-46.79-3-62.72-7Z"/><path class="a" d="M4111,356.78a69,69,0,0,1,5.67-27.82,71.1,71.1,0,0,1,15.38-22.63,74.53,74.53,0,0,1,22.8-15.24,71.27,71.27,0,0,1,55.62,0,74.43,74.43,0,0,1,22.78,15.24,70.83,70.83,0,0,1,15.4,22.63,69,69,0,0,1,5.67,27.82,67.82,67.82,0,0,1-5.67,27.65,71.95,71.95,0,0,1-132,0A67.82,67.82,0,0,1,4111,356.78Zm11.32,0a58.46,58.46,0,0,0,4.71,23.25A62.23,62.23,0,0,0,4140,399.35a60,60,0,0,0,85.48,0A62.23,62.23,0,0,0,4238.33,380a58.46,58.46,0,0,0,4.71-23.25,59.28,59.28,0,0,0-4.71-23.58,60.09,60.09,0,0,0-32.06-32.06,61.33,61.33,0,0,0-47.14,0,60.09,60.09,0,0,0-32.06,32.06A59.28,59.28,0,0,0,4122.36,356.78Zm32.36-40.54H4183a48.31,48.31,0,0,1,11,1.25,28.86,28.86,0,0,1,9.59,4.09,21.46,21.46,0,0,1,6.76,7.23,22,22,0,0,1,2.51,11q0,8.81-5,14.3a25.16,25.16,0,0,1-13.52,7.39l21.68,35.2h-17.6l-18.86-33.63h-10.36v33.63h-14.47Zm26.09,35.2a31,31,0,0,0,11.94-2.36q5.67-2.37,5.66-9.59,0-6.6-5.18-8.8a27.64,27.64,0,0,0-10.84-2.2h-13.2v22.95Z"/></svg>
