<svg xmlns="http://www.w3.org/2000/svg" viewBox="0 0 7786.57 1050.35"><defs><style>.a{fill:currentColor;}</style></defs><title>csfest-text-color</title><path class="a" d="M163.42,453.76c0-204.07,154.3-343.43,353.39-343.43,146.34,0,231,79.64,277.73,162.26L673.1,332.32c-27.87-53.76-87.61-96.56-156.29-96.56-120.45,0-208,92.57-208,218s87.6,218,208,218c68.68,0,128.42-41.81,156.29-96.56l121.44,58.74c-47.77,82.62-131.39,163.25-277.73,163.25C317.72,797.19,163.42,657.83,163.42,453.76Z"/><path class="a" d="M811.73,544.35c0-136.38,95.56-251.85,253.84-251.85,159.27,0,254.83,115.47,254.83,251.85,0,137.37-95.56,252.84-254.83,252.84C907.29,797.19,811.73,681.72,811.73,544.35Zm377.27,0c0-74.66-44.79-139.36-123.43-139.36s-122.45,64.7-122.45,139.36c0,75.65,43.8,140.35,122.45,140.35S1189,620,1189,544.35Z"/><path class="a" d="M1710.88,785.25V723.53c-37.83,47.78-90.59,73.66-148.33,73.66-121.45,0-213-91.58-213-251.85,0-157.28,90.59-252.84,213-252.84,56.75,0,110.5,24.88,148.33,73.66V121.28H1838.3v664Zm0-155.3V459.74C1690,427.88,1644.18,405,1601.38,405c-71.67,0-121.45,56.73-121.45,140.35,0,82.63,49.78,139.36,121.45,139.36C1644.18,684.7,1690,661.81,1710.88,630Z"/><path class="a" d="M1885.64,544.35c0-139.36,102.53-251.85,248.87-251.85,143.34,0,240.9,107.51,240.9,264.79v27.87H2018c8,60.72,56.74,111.49,138.37,111.49,40.81,0,97.55-17.92,128.41-47.78l55.75,81.63c-47.78,43.79-123.44,66.69-198.1,66.69C1996.14,797.19,1885.64,698.64,1885.64,544.35ZM2134.51,393c-78.64,0-112.48,58.73-118.46,106.51H2253C2250,453.76,2218.13,393,2134.51,393Z"/><path class="a" d="M2422.75,785.25v-664h261.8c208,0,352.39,132.4,352.39,332.48S2892.6,785.25,2684.55,785.25ZM2892.6,453.76c0-117.46-71.67-208-208-208H2564.1v415.1h120.45C2816,660.81,2892.6,566.25,2892.6,453.76Z"/><path class="a" d="M3378.33,785.25V735.47c-32.85,38.82-89.59,61.72-152.31,61.72-76.64,0-167.24-51.76-167.24-159.27,0-112.49,90.6-155.29,167.24-155.29,63.71,0,120.46,20.9,152.31,58.73v-64.7c0-48.78-41.81-80.63-105.52-80.63-51.76,0-99.54,18.91-140.36,56.73l-47.77-84.61c58.72-51.76,134.38-75.65,210-75.65,109.5,0,210,43.8,210,182.16V785.25Zm0-115.48V610.05c-20.9-27.87-60.72-41.81-101.53-41.81-49.78,0-90.6,25.88-90.6,72.67,0,44.79,40.82,70.67,90.6,70.67C3317.61,711.58,3357.43,697.64,3378.33,669.77Z"/><path class="a" d="M3578.68,859.91c11,5,27.88,8,39.82,8,32.85,0,54.74-9,66.69-34.85l17.92-40.81L3508,304.44h135.38l125.42,334.47,125.43-334.47h136.37l-226,559.45c-35.84,90.58-99.55,114.47-182.17,116.46-14.93,0-46.79-3-62.71-7Z"/><path class="a" d="M4077.4,286.25a69,69,0,0,1,5.66-27.82,71.13,71.13,0,0,1,15.39-22.63,74.69,74.69,0,0,1,22.79-15.25,71.27,71.27,0,0,1,55.62,0,74.52,74.52,0,0,1,22.78,15.25,70.86,70.86,0,0,1,15.41,22.63,69,69,0,0,1,5.66,27.82,67.82,67.82,0,0,1-5.66,27.65,72,72,0,0,1-132,0A67.82,67.82,0,0,1,4077.4,286.25Zm11.31,0a58.5,58.5,0,0,0,4.72,23.25,62.05,62.05,0,0,0,12.89,19.32,60,60,0,0,0,85.47,0,62.05,62.05,0,0,0,12.89-19.32,58.5,58.5,0,0,0,4.72-23.25,59.29,59.29,0,0,0-4.72-23.58,60.09,60.09,0,0,0-32.06-32.06,61.33,61.33,0,0,0-47.14,0,60.11,60.11,0,0,0-32,32.06A59.29,59.29,0,0,0,4088.71,286.25Zm32.37-40.54h28.29a48.29,48.29,0,0,1,11,1.25,28.91,28.91,0,0,1,9.6,4.09,21.43,21.43,0,0,1,6.75,7.23,21.93,21.93,0,0,1,2.51,11q0,8.81-5,14.3a25.13,25.13,0,0,1-13.52,7.39l21.68,35.2h-17.59l-18.86-33.64h-10.37v33.64h-14.46Zm26.08,35.19a30.89,30.89,0,0,0,11.94-2.35c3.79-1.58,5.67-4.77,5.67-9.59q0-6.61-5.19-8.8a27.43,27.43,0,0,0-10.84-2.2h-13.2V280.9Z"/><path class="a" d="M4369.37,465.52c0-204.35,154.51-343.91,348.89-343.91,151.52,0,236.25,79.75,283.11,162.49l-121.62,59.8c-27.91-53.82-87.72-96.68-161.49-96.68-115.63,0-203.36,92.7-203.36,218.3s87.73,218.31,203.36,218.31c73.77,0,133.58-41.86,161.49-96.69L5001.37,646c-47.85,82.74-131.59,163.48-283.11,163.48C4523.88,809.43,4369.37,669.88,4369.37,465.52Z"/><path class="a" d="M5097,596.11a291.5,291.5,0,0,0,211.33,89.72c77.76,0,115.64-36.89,115.64-74.76,0-49.85-57.82-66.8-134.58-84.74C5180.69,501.41,5041.13,471.5,5041.13,323c0-110.65,95.7-200.37,252.2-200.37,105.67,0,193.39,31.89,259.18,92.71L5473.76,319c-53.83-49.85-125.6-72.77-190.4-72.77-63.8,0-97.69,27.91-97.69,67.78,0,44.86,55.83,58.82,132.58,76.75,109.65,24.93,249.21,57.83,249.21,205.36,0,121.61-86.72,213.32-266.16,213.32-127.59,0-219.3-42.86-282.1-105.66Z"/><path class="a" d="M5886.77,132.58h470.51V254.19h-329V398.73h322V520.35h-322V797.47H5886.77Z"/><path class="a" d="M6629.19,304c143.54,0,241.23,107.66,241.23,265.16v27.92H6512.55c8,60.81,56.83,111.65,138.56,111.65,44.86,0,97.69-18,128.6-47.85l55.82,81.73c-48.84,44.87-123.6,66.79-198.36,66.79-146.54,0-257.19-98.69-257.19-253.2C6380,416.68,6482.65,304,6629.19,304ZM6510.56,511.38h237.25c-3-45.86-34.9-106.66-118.62-106.66C6550.44,404.72,6516.54,463.53,6510.56,511.38Z"/><path class="a" d="M6954,646c34.89,32.89,106.66,65.79,166.47,65.79,54.82,0,80.75-18.93,80.75-48.85,0-33.88-41.86-45.85-96.7-56.81-82.74-16-189.39-35.89-189.39-150.53,0-80.73,70.77-151.52,197.37-151.52,81.74,0,146.53,27.91,193.38,65.8l-49.84,86.72c-28.91-30.9-83.73-55.82-142.55-55.82-45.85,0-75.76,16.95-75.76,44.86,0,29.9,37.88,40.86,91.71,51.83,82.74,15.95,193.39,37.88,193.39,157.5,0,88.72-74.76,154.51-208.34,154.51-83.74,0-164.48-27.91-215.32-74.76Z"/><path class="a" d="M7420.44,677.85V426.64h-79.75V316h79.75V184.41H7548V316h97.69V426.64H7548V644c0,29.91,15.94,52.83,43.85,52.83,18.95,0,36.89-7,43.87-14l26.91,95.7c-18.94,17-52.83,30.9-105.66,30.9C7468.29,809.43,7420.44,763.58,7420.44,677.85Z"/></svg>
