<svg xmlns="http://www.w3.org/2000/svg" viewBox="0 0 6406.37 1050.35"><defs><style>.a{fill:currentColor;}</style></defs><title>labs-text-color</title><path class="a" d="M4452.8,138.13h141.55V678.42h281.11V803H4452.8Z"/><path class="a" d="M5232.23,753.18c-32.9,38.88-89.72,61.8-152.52,61.8-76.75,0-167.47-51.83-167.47-159.49C4912.24,542.84,5003,502,5079.71,502c63.8,0,120.62,19.94,152.52,58.81V494c0-48.85-41.87-80.75-105.67-80.75-51.83,0-99.68,18.94-140.55,56.83l-47.85-84.74c58.81-51.84,134.57-75.75,210.33-75.75,109.66,0,210.34,43.85,210.34,182.41V803h-126.6Zm0-125.6c-20.93-27.91-60.81-41.87-101.68-41.87-49.84,0-90.71,26.92-90.71,72.77,0,44.86,40.87,70.78,90.71,70.78,40.87,0,80.75-14,101.68-41.87Z"/><path class="a" d="M5431.79,138.13h126.6V383.35c37.89-48.85,91.71-73.76,148.54-73.76,122.6,0,213.32,95.69,213.32,253.19,0,160.5-91.71,252.2-213.32,252.2-57.82,0-110.65-25.91-148.54-72.76V803h-126.6Zm235.26,564.21c73.76,0,122.61-55.82,122.61-139.56s-48.85-140.55-122.61-140.55c-40.87,0-87.72,23.92-108.66,55.82V648.52C5579.33,679.42,5626.18,702.34,5667.05,702.34Z"/><path class="a" d="M6007.86,651.5c34.88,32.89,106.66,65.79,166.47,65.79,54.83,0,80.74-18.93,80.74-48.85,0-33.88-41.86-45.85-96.69-56.81-82.74-16-189.4-35.89-189.4-150.53,0-80.73,70.78-151.51,197.38-151.51,81.74,0,146.52,27.9,193.37,65.79L6309.9,462.1c-28.92-30.9-83.74-55.82-142.55-55.82-45.86,0-75.76,17-75.76,44.86,0,29.9,37.88,40.86,91.71,51.83,82.73,15.95,193.38,37.88,193.38,157.5,0,88.72-74.76,154.51-208.33,154.51-83.74,0-164.48-27.91-215.32-74.76Z"/><path class="a" d="M215,469.84c0-204.06,154.29-343.43,353.39-343.43,146.33,0,230.95,79.64,277.72,162.26L724.63,348.4c-27.87-53.76-87.6-96.56-156.28-96.56-120.46,0-208.06,92.57-208.06,218s87.6,218,208.06,218c68.68,0,128.41-41.81,156.28-96.56L846.07,650C798.3,732.64,714.68,813.27,568.35,813.27,369.25,813.27,215,673.91,215,469.84Z"/><path class="a" d="M863.26,560.43c0-136.38,95.56-251.85,253.84-251.85,159.27,0,254.84,115.47,254.84,251.85,0,137.37-95.57,252.84-254.84,252.84C958.82,813.27,863.26,697.8,863.26,560.43Zm377.27,0c0-74.66-44.79-139.36-123.43-139.36s-122.44,64.7-122.44,139.36c0,75.65,43.79,140.36,122.44,140.36S1240.53,636.08,1240.53,560.43Z"/><path class="a" d="M1762.41,801.33V739.61c-37.83,47.78-90.58,73.66-148.32,73.66-121.45,0-213-91.58-213-251.85,0-157.28,90.58-252.84,213-252.84,56.74,0,110.49,24.89,148.32,73.66V137.36h127.42v664Zm0-155.29V475.82c-20.91-31.86-66.7-54.75-109.5-54.75-71.67,0-121.45,56.73-121.45,140.35,0,82.63,49.78,139.37,121.45,139.37C1695.71,700.79,1741.5,677.89,1762.41,646Z"/><path class="a" d="M1937.17,560.43c0-139.36,102.54-251.85,248.87-251.85,143.34,0,240.9,107.51,240.9,264.79v27.87H2069.57c8,60.73,56.75,111.49,138.37,111.49,40.81,0,97.55-17.92,128.42-47.78l55.74,81.63c-47.78,43.79-123.44,66.69-198.1,66.69C2047.67,813.27,1937.17,714.72,1937.17,560.43ZM2186,409.12c-78.64,0-112.48,58.73-118.46,106.51H2304.5C2301.51,469.84,2269.66,409.12,2186,409.12Z"/><path class="a" d="M2474.29,801.33v-664h261.8c208,0,352.38,132.4,352.38,332.48s-144.34,331.49-352.38,331.49Zm469.84-331.49c0-117.46-71.67-208-208-208H2615.63v415.1h120.46C2867.49,676.89,2944.13,582.33,2944.13,469.84Z"/><path class="a" d="M3429.86,801.33V751.55c-32.85,38.82-89.59,61.72-152.3,61.72-76.64,0-167.24-51.76-167.24-159.27,0-112.49,90.6-155.29,167.24-155.29,63.71,0,120.45,20.9,152.3,58.73v-64.7c0-48.78-41.81-80.63-105.51-80.63-51.76,0-99.55,18.91-140.37,56.74l-47.77-84.62c58.72-51.76,134.38-75.65,210-75.65,109.5,0,210,43.8,210,182.16V801.33Zm0-115.48V626.13c-20.9-27.87-60.72-41.81-101.53-41.81-49.78,0-90.59,25.88-90.59,72.67,0,44.79,40.81,70.67,90.59,70.67C3369.14,727.66,3409,713.73,3429.86,685.85Z"/><path class="a" d="M3630.22,876c11,5,27.87,8,39.82,8,32.84,0,54.74-9,66.69-34.84l17.91-40.82-195.1-487.76h135.38L3820.35,655l125.42-334.46h136.38L3856.18,880c-35.83,90.58-99.54,114.47-182.17,116.46-14.92,0-46.78-3-62.71-7Z"/><path class="a" d="M4128.93,302.33a68.84,68.84,0,0,1,5.67-27.82A71.1,71.1,0,0,1,4150,251.88a74.41,74.41,0,0,1,22.8-15.24,71.27,71.27,0,0,1,55.62,0,74.43,74.43,0,0,1,22.78,15.24,71,71,0,0,1,15.4,22.63,69,69,0,0,1,5.66,27.82,67.82,67.82,0,0,1-5.66,27.65,71.69,71.69,0,0,1-66,43,70.69,70.69,0,0,1-27.8-5.5A71.08,71.08,0,0,1,4134.6,330,67.66,67.66,0,0,1,4128.93,302.33Zm11.32,0a58.46,58.46,0,0,0,4.71,23.25,62.23,62.23,0,0,0,12.89,19.32,60,60,0,0,0,85.47,0,61.88,61.88,0,0,0,12.89-19.32,58.47,58.47,0,0,0,4.72-23.25,59.29,59.29,0,0,0-4.72-23.58,60.11,60.11,0,0,0-32.05-32.06,61.33,61.33,0,0,0-47.14,0A60.09,60.09,0,0,0,4145,278.75,59.28,59.28,0,0,0,4140.25,302.33Zm32.36-40.54h28.29a48.16,48.16,0,0,1,11,1.25,28.83,28.83,0,0,1,9.6,4.09,21.33,21.33,0,0,1,6.75,7.23,21.85,21.85,0,0,1,2.51,11q0,8.81-5,14.3a25.13,25.13,0,0,1-13.52,7.39l21.68,35.2H4216.3l-18.86-33.63h-10.36v33.63h-14.47ZM4198.7,297a31,31,0,0,0,11.94-2.35q5.67-2.37,5.66-9.59,0-6.6-5.19-8.8a27.6,27.6,0,0,0-10.84-2.2h-13.19V297Z"/></svg>
